<?xml version="1.0" encoding="UTF-8" standalone="no"?><!DOCTYPE svg PUBLIC "-//W3C//DTD SVG 1.1//EN" "http://www.w3.org/Graphics/SVG/1.1/DTD/svg11.dtd"><svg width="100%" height="100%" viewBox="0 0 12 16" version="1.1" xmlns="http://www.w3.org/2000/svg" xmlns:xlink="http://www.w3.org/1999/xlink" xml:space="preserve" xmlns:serif="http://www.serif.com/" style="fill-rule:evenodd;clip-rule:evenodd;stroke-linejoin:round;stroke-miterlimit:1.41421;"><rect id="dot" x="0" y="0" width="11.2" height="16" style="fill:none;"/><clipPath id="_clip1"><rect x="0" y="0" width="11.2" height="16"/></clipPath><g clip-path="url(#_clip1)"><path d="M9.56,1.641c-1.058,-1.057 -2.465,-1.641 -3.962,-1.641c-1.498,0 -2.905,0.584 -3.963,1.641c-1.958,1.959 -2.202,5.643 -0.527,7.876l4.49,6.483l4.482,-6.475c1.682,-2.241 1.438,-5.925 -0.52,-7.884Zm-3.911,5.957c-1.128,0 -2.045,-0.918 -2.045,-2.046c0,-1.127 0.917,-2.045 2.045,-2.045c1.128,0 2.045,0.918 2.045,2.045c0,1.128 -0.917,2.046 -2.045,2.046Z" style="fill:#a0b3c9;fill-rule:nonzero;"/></g></svg>