<?xml version="1.0" encoding="UTF-8" standalone="no"?><!DOCTYPE svg PUBLIC "-//W3C//DTD SVG 1.1//EN" "http://www.w3.org/Graphics/SVG/1.1/DTD/svg11.dtd"><svg width="100%" height="100%" viewBox="0 0 17 14" version="1.1" xmlns="http://www.w3.org/2000/svg" xmlns:xlink="http://www.w3.org/1999/xlink" xml:space="preserve" xmlns:serif="http://www.serif.com/" style="fill-rule:evenodd;clip-rule:evenodd;stroke-linejoin:round;stroke-miterlimit:1.41421;"><rect id="map" x="0" y="0" width="16.4" height="13.9" style="fill:none;"/><clipPath id="_clip1"><rect x="0" y="0" width="16.4" height="13.9"/></clipPath><g clip-path="url(#_clip1)"><path d="M16.244,1.918l-4.101,-1.914c-0.002,-0.002 -0.005,0 -0.007,-0.002c-0.033,-0.015 -0.067,-0.021 -0.102,-0.022c-0.003,0 -0.004,-0.002 -0.007,-0.002c-0.005,0 -0.01,0.002 -0.016,0.003c-0.015,0 -0.029,0.003 -0.044,0.005c-0.011,0.003 -0.02,0.006 -0.029,0.008c-0.005,0.003 -0.012,0.004 -0.017,0.006l-3.721,1.595l-3.721,-1.594c-0.001,-0.001 -0.002,-0.001 -0.005,-0.001c-0.029,-0.013 -0.06,-0.019 -0.092,-0.02c-0.004,0 -0.006,-0.002 -0.009,-0.002c-0.006,0 -0.011,0.002 -0.015,0.003c-0.016,0 -0.032,0.003 -0.048,0.006c-0.008,0.002 -0.016,0.005 -0.025,0.007c-0.004,0.002 -0.01,0.002 -0.014,0.004l-4.101,1.641c-0.104,0.041 -0.172,0.141 -0.172,0.254l0,11.755c0,0.091 0.046,0.175 0.12,0.227c0.046,0.031 0.099,0.047 0.154,0.047c0.033,0 0.068,-0.007 0.101,-0.02l3.996,-1.598l3.724,1.595c0.003,0.001 0.007,0.001 0.011,0.003c0.031,0.012 0.063,0.02 0.096,0.02c0.033,0 0.065,-0.008 0.096,-0.02c0.004,-0.002 0.008,-0.002 0.012,-0.003l3.723,-1.595l3.996,1.598c0.033,0.013 0.068,0.02 0.101,0.02c0.055,0 0.108,-0.016 0.154,-0.047c0.074,-0.052 0.12,-0.136 0.12,-0.227l0,-11.483c0,-0.106 -0.062,-0.203 -0.158,-0.247Zm-11.597,-1.252l3.279,1.407l0,11.161l-3.279,-1.407l0,-11.161Zm11.207,12.579l-3.553,-1.422l0,-11.142l3.553,1.659l0,10.905Z" style="fill:#f0f;fill-rule:nonzero;"/></g></svg>