<?xml version="1.0" encoding="UTF-8" standalone="no"?><!DOCTYPE svg PUBLIC "-//W3C//DTD SVG 1.1//EN" "http://www.w3.org/Graphics/SVG/1.1/DTD/svg11.dtd"><svg width="100%" height="100%" viewBox="0 0 193 51" version="1.1" xmlns="http://www.w3.org/2000/svg" xmlns:xlink="http://www.w3.org/1999/xlink" xml:space="preserve" xmlns:serif="http://www.serif.com/" style="fill-rule:evenodd;clip-rule:evenodd;stroke-linejoin:round;stroke-miterlimit:1.41421;"><rect id="logo_final" x="0" y="0" width="192.172" height="50.914" style="fill:none;"/><g><path d="M61.501,36.258l0,-19.453l-7.291,0l0,-2.265l17.064,0l0,2.265l-7.291,0l0,19.453l-2.482,0Z" style="fill-rule:nonzero;"/><rect x="76.082" y="14.54" width="2.451" height="21.718" style="fill-rule:nonzero;"/><path d="M84.894,36.258l0,-21.718l2.482,0l7.911,11.852l7.911,-11.852l2.482,0l0,21.718l-2.451,0l0,-17.592l-7.911,11.635l-0.124,0l-7.911,-11.604l0,17.561l-2.389,0Z" style="fill-rule:nonzero;"/><rect x="112.041" y="14.54" width="2.451" height="21.718" style="fill-rule:nonzero;"/><path d="M120.852,36.258l0,-21.718l2.451,0l0,19.453l12.224,0l0,2.265l-14.675,0Z" style="fill-rule:nonzero;"/><rect x="140.274" y="14.54" width="2.451" height="21.718" style="fill-rule:nonzero;"/><path d="M149.085,36.258l0,-21.718l2.296,0l13.682,17.405l0,-17.405l2.389,0l0,21.718l-1.955,0l-14.023,-17.809l0,17.809l-2.389,0Z" style="fill-rule:nonzero;"/><path d="M173.595,36.258l0,-21.718l2.451,0l0,12.968l12.472,-12.968l3.164,0l-9.307,9.494l9.711,12.224l-3.072,0l-8.346,-10.518l-4.622,4.685l0,5.833l-2.451,0Z" style="fill-rule:nonzero;"/></g><g><path d="M38.071,24.418c2.008,2.555 4.204,4.985 6.321,7.474c2.035,2.441 1.457,6.611 -1.323,8.339c-1.154,0.717 -2.567,0.987 -3.91,0.759c-3.209,-0.577 -6.393,-1.252 -9.583,-1.708l0.05,-0.14c0.261,-0.746 0.542,-1.484 0.84,-2.214c3.055,0.468 6.097,1.105 9.151,1.622c2.404,0.384 4.76,-2.755 2.896,-5.036c-2,-2.398 -4.083,-4.72 -6.02,-7.132c0.508,-0.668 1.034,-1.323 1.578,-1.964Zm-30.373,0.024c0.545,0.641 1.072,1.297 1.58,1.965c-1.937,2.41 -4.016,4.726 -6.001,7.107c-1.54,1.884 0.097,5.483 2.896,5.036c3.054,-0.517 6.086,-1.15 9.122,-1.617c0.281,0.685 0.545,1.378 0.793,2.078l0.098,0.274c-3.191,0.458 -6.368,1.132 -9.556,1.705c-3.102,0.526 -6.382,-1.997 -6.538,-5.232c-0.067,-1.388 0.405,-2.785 1.306,-3.866c2.118,-2.491 4.304,-4.913 6.3,-7.45Zm6.78,-11.831c1.146,-2.906 2.113,-5.902 3.165,-8.859c0.798,-2.174 2.897,-3.697 5.307,-3.685c2.27,0.033 4.406,1.53 5.197,3.685c1.057,2.971 2.024,5.964 3.166,8.861c-0.826,0.152 -1.656,0.281 -2.487,0.388c-1.066,-2.783 -1.996,-5.631 -3.024,-8.434c-0.449,-1.186 -1.648,-2.025 -2.938,-2.018c-1.262,0.018 -2.452,0.862 -2.887,2.047c-1.001,2.814 -1.93,5.647 -2.994,8.406c-0.838,-0.108 -1.673,-0.238 -2.505,-0.391Z" style="fill:url(#_Linear1);"/><path d="M40.176,9.786c4.084,0.057 7.297,5.494 4.217,9.183c-3.635,4.27 -7.472,8.349 -10.208,13.15c-2.66,4.668 -4.222,9.887 -6.039,14.988c-1.098,2.989 -5.006,4.564 -7.884,3.025c-1.197,-0.641 -2.138,-1.73 -2.612,-3.007c-1.862,-5.17 -3.442,-10.408 -6.129,-15.092c-2.739,-4.775 -6.557,-8.844 -10.135,-13.079c-2.005,-2.423 -1.462,-6.526 1.261,-8.278c1.17,-0.752 2.615,-1.042 4.002,-0.802c5.399,0.989 10.72,2.25 16.132,2.264c5.496,0.015 10.916,-1.266 16.36,-2.265c0.341,-0.06 0.687,-0.089 1.035,-0.087Zm-0.083,2.482c-0.163,0.002 -0.325,0.017 -0.485,0.043c-5.637,0.978 -11.19,2.324 -16.833,2.309c-5.584,-0.014 -11.071,-1.352 -16.592,-2.308c-2.399,-0.39 -4.763,2.746 -2.913,5.026c3.645,4.405 7.587,8.548 10.404,13.46c2.777,4.841 4.369,10.256 6.318,15.504c0.869,2.27 4.766,2.744 5.809,-0.01c1.926,-5.241 3.492,-10.602 6.228,-15.402c2.828,-4.962 6.812,-9.144 10.486,-13.544c1.44,-1.761 0.303,-4.989 -2.302,-5.077c-0.04,-0.001 -0.08,-0.002 -0.12,-0.001Z" style="fill:#2d8dff;"/></g><defs><linearGradient id="_Linear1" x1="0" y1="0" x2="1" y2="0" gradientUnits="userSpaceOnUse" gradientTransform="matrix(-43.125,31.0659,31.0659,43.125,43.2731,8.76663)"><stop offset="0" style="stop-color:#298aff;stop-opacity:1"/><stop offset="0.5" style="stop-color:#ff496f;stop-opacity:1"/><stop offset="1" style="stop-color:#fa0;stop-opacity:1"/></linearGradient></defs></svg>